<?xml version="1.0" encoding="UTF-8" standalone="no"?>
<!-- Created with Inkscape (http://www.inkscape.org/) -->

<svg
   xmlns:dc="http://purl.org/dc/elements/1.1/"
   xmlns:cc="http://creativecommons.org/ns#"
   xmlns:rdf="http://www.w3.org/1999/02/22-rdf-syntax-ns#"
   xmlns:svg="http://www.w3.org/2000/svg"
   xmlns="http://www.w3.org/2000/svg"
   xmlns:sodipodi="http://sodipodi.sourceforge.net/DTD/sodipodi-0.dtd"
   xmlns:inkscape="http://www.inkscape.org/namespaces/inkscape"
   id="svg8"
   version="1.1"
   viewBox="0 0 211.66666 211.66667"
   height="800"
   width="800"
   inkscape:version="0.92.1 r15371"
   sodipodi:docname="icon.svg"
   inkscape:export-filename="C:\cygwin64\home\Alexander_Pruss\android\vectordisplay\app\src\main\res\mipmap\icon.png"
   inkscape:export-xdpi="61.439999"
   inkscape:export-ydpi="61.439999">
  <sodipodi:namedview
     inkscape:window-maximized="1"
     inkscape:window-y="-8"
     inkscape:window-x="-8"
     inkscape:window-height="715"
     inkscape:window-width="1366"
     units="px"
     showgrid="false"
     inkscape:current-layer="layer1"
     inkscape:document-units="mm"
     inkscape:cy="560"
     inkscape:cx="137.14491"
     inkscape:zoom="0.49497475"
     inkscape:pageshadow="2"
     inkscape:pageopacity="0.0"
     borderopacity="1.0"
     bordercolor="#666666"
     pagecolor="#ffffff"
     id="base" />
  <defs
     id="defs2">
    <clipPath
       id="clipPath">
      <rect
         ry="17.9"
         y="104.23213"
         x="15.875"
         height="173.86905"
         width="173.86905"
         id="rect3682"
         style="opacity:1;fill:none;fill-opacity:1;stroke:#000000;stroke-width:3.96875;stroke-miterlimit:4;stroke-dasharray:none;stroke-dashoffset:0;stroke-opacity:1" />
    </clipPath>
    <clipPath
       id="clipPathN">
      <rect
         ry="17.9"
         y="104.23213"
         x="15.875"
         height="173.86905"
         width="173.86905"
         id="rect4507"
         style="opacity:1;fill:none;fill-opacity:1;stroke:#000000;stroke-width:3.96875;stroke-miterlimit:4;stroke-dasharray:none;stroke-dashoffset:0;stroke-opacity:1" />
    </clipPath>
    <clipPath
       id="clipPathh">
      <rect
         ry="17.9"
         y="104.23213"
         x="15.875"
         height="173.86905"
         width="173.86905"
         id="rect4527"
         style="opacity:1;fill:none;fill-opacity:1;stroke:#000000;stroke-width:3.96875;stroke-miterlimit:4;stroke-dasharray:none;stroke-dashoffset:0;stroke-opacity:1" />
    </clipPath>
    <clipPath
       id="clipPathL">
      <rect
         ry="17.9"
         y="104.23213"
         x="15.875"
         height="173.86905"
         width="173.86905"
         id="rect4553"
         style="opacity:1;fill:none;fill-opacity:1;stroke:#000000;stroke-width:3.96875;stroke-miterlimit:4;stroke-dasharray:none;stroke-dashoffset:0;stroke-opacity:1" />
    </clipPath>
    <clipPath
       id="clipPatha">
      <rect
         ry="17.9"
         y="104.23213"
         x="15.875"
         height="173.86905"
         width="173.86905"
         id="rect4585"
         style="opacity:1;fill:none;fill-opacity:1;stroke:#000000;stroke-width:3.96875;stroke-miterlimit:4;stroke-dasharray:none;stroke-dashoffset:0;stroke-opacity:1" />
    </clipPath>
    <clipPath
       id="clipPathY">
      <rect
         ry="17.9"
         y="104.23213"
         x="15.875"
         height="173.86905"
         width="173.86905"
         id="rect4623"
         style="opacity:1;fill:none;fill-opacity:1;stroke:#000000;stroke-width:3.96875;stroke-miterlimit:4;stroke-dasharray:none;stroke-dashoffset:0;stroke-opacity:1" />
    </clipPath>
    <clipPath
       id="clipPathNx">
      <rect
         ry="17.9"
         y="104.23213"
         x="15.875"
         height="173.86905"
         width="173.86905"
         id="rect4661"
         style="opacity:1;fill:none;fill-opacity:1;stroke:#000000;stroke-width:3.96875;stroke-miterlimit:4;stroke-dasharray:none;stroke-dashoffset:0;stroke-opacity:1" />
    </clipPath>
  </defs>
  <metadata
     id="metadata5">
    <rdf:RDF>
      <cc:Work
         rdf:about="">
        <dc:format>image/svg+xml</dc:format>
        <dc:type
           rdf:resource="http://purl.org/dc/dcmitype/StillImage" />
        <dc:title />
      </cc:Work>
    </rdf:RDF>
  </metadata>
  <g
     transform="translate(0,-85.333317)"
     id="layer1"
     inkscape:groupmode="layer"
     inkscape:label="Layer 1">
    <rect
       ry="28.106407"
       y="100.57384"
       x="15.24054"
       height="181.18559"
       width="181.18559"
       id="rect4703"
       style="opacity:1;fill:#4d4d4d;fill-opacity:1;stroke:#000000;stroke-width:4.13575792;stroke-miterlimit:4;stroke-dasharray:none;stroke-dashoffset:0;stroke-opacity:1" />
    <path
       transform="matrix(1.0420807,0,0,1.0420807,-1.3024924,22.678338)"
       inkscape:connector-curvature="0"
       style="opacity:1;fill:none;fill-opacity:1;stroke:#00ff00;stroke-width:3.96875;stroke-miterlimit:4;stroke-dasharray:none;stroke-dashoffset:0;stroke-opacity:1"
       d="m 15.875,191.16665 c 3.863757,-11.59345 7.727513,-22.73321 11.59127,-26.32271 3.863757,-3.5895 7.727513,0.67936 11.59127,10.05438 3.863757,9.37502 7.727513,23.15308 11.59127,32.53667 3.863757,9.38358 7.727513,13.63003 11.59127,10.05438 3.863757,-3.57565 7.727513,-14.72926 11.59127,-26.32272 3.863757,-11.59345 7.727513,-22.73321 11.59127,-26.32271 3.863757,-3.5895 7.727513,0.67936 11.59127,10.05438 3.86376,9.37502 7.72751,23.15308 11.59127,32.53667 3.86376,9.38358 7.72751,13.63003 11.59127,10.05438 3.86376,-3.57565 7.72751,-14.72926 11.59127,-26.32272 3.86376,-11.59345 7.72751,-22.73321 11.59127,-26.32271 3.86376,-3.5895 7.72751,0.67936 11.59127,10.05438 3.86376,9.37502 7.72751,23.15308 11.59127,32.53667 3.86376,9.38358 7.72751,13.63003 11.59127,10.05438 3.86376,-3.57565 7.72751,-14.72926 11.59127,-26.32272"
       title="sin(x)"
       clip-path="url(#clipPathY)"
       id="path4664" />
    <path
       id="path4706"
       clip-path="url(#clipPathNx)"
       title="sin(x)"
       d="m 15.875,191.16665 c 3.863757,-7.72897 7.727513,-15.39417 11.59127,-20.56827 3.863757,-5.17409 7.727513,-7.76212 11.59127,-6.95745 3.863757,0.80468 7.727513,5.00643 11.59127,11.25739 3.863757,6.25097 7.727513,14.46203 11.59127,22.02278 3.863757,7.56074 7.727513,14.34755 11.59127,18.21483 3.863757,3.86729 7.727513,4.73874 11.59127,2.35344 3.863757,-2.3853 7.727513,-8.00588 11.59127,-15.06533 3.86376,-7.05945 7.72751,-15.45269 11.59127,-22.51477 3.86376,-7.06209 7.72751,-12.67387 11.59127,-15.06533 3.86376,-2.39146 7.72751,-1.50825 11.59127,2.35344 3.86376,3.86168 7.72751,10.65543 11.59127,18.21483 3.86376,7.5594 7.72751,15.76801 11.59127,22.02278 3.86376,6.25477 7.72751,10.44627 11.59127,11.25739 3.86376,0.81111 7.72751,-1.78817 11.59127,-6.95745 3.86376,-5.16929 7.72751,-12.8393 11.59127,-20.56828"
       style="opacity:1;fill:none;fill-opacity:1;stroke:#00ff00;stroke-width:3.96875;stroke-miterlimit:4;stroke-dasharray:none;stroke-dashoffset:0;stroke-opacity:1"
       inkscape:connector-curvature="0"
       transform="matrix(1.0420807,0,0,0.80647755,-1.3024924,-2.39295)" />
    <rect
       style="opacity:1;fill:none;fill-opacity:1;stroke:#000000;stroke-width:4.13575792;stroke-miterlimit:4;stroke-dasharray:none;stroke-dashoffset:0;stroke-opacity:1"
       id="rect4730"
       width="181.18559"
       height="181.18559"
       x="15.24054"
       y="100.57384"
       ry="28.106407" />
  </g>
</svg>
